<?xml version="1.0" standalone="no"?>
<!DOCTYPE svg PUBLIC "-//W3C//DTD SVG 20010904//EN"
 "http://www.w3.org/TR/2001/REC-SVG-20010904/DTD/svg10.dtd">
<svg version="1.0" xmlns="http://www.w3.org/2000/svg"
 width="200" height="200" viewBox="0 0 200.000000 200.000000"
 preserveAspectRatio="xMidYMid meet">

<g transform="translate(0.000000,200.000000) scale(0.100000,-0.100000)"
fill="#000000" stroke="none">
<path d="M293 1698 c-16 -18 -46 -53 -69 -78 -22 -25 -74 -86 -116 -135 -41
-50 -83 -97 -92 -104 -14 -12 -16 -68 -16 -557 l0 -544 540 0 540 0 0 545 c0
538 0 545 -21 563 -11 9 -88 90 -171 180 -113 121 -157 162 -174 162 -13 0
-24 -2 -24 -4 0 -2 19 -23 43 -47 154 -159 277 -293 277 -303 0 -8 -92 -10
-330 -8 -330 3 -354 5 -316 36 7 6 60 74 116 151 57 77 109 145 117 151 7 6
13 14 13 18 0 3 -65 6 -145 6 l-145 0 -27 -32z m247 -18 c0 -11 -26 -53 -58
-93 -32 -39 -81 -105 -109 -145 l-50 -73 -136 -2 c-145 -2 -156 2 -119 42 26
29 53 61 102 120 25 29 60 70 79 90 18 20 40 46 48 59 14 21 22 22 129 22 108
0 114 -1 114 -20z m-232 -348 c10 -7 12 -116 10 -513 l-3 -504 -142 -3 -143
-3 0 509 c0 280 3 512 7 515 9 10 255 8 271 -1z m750 -510 l2 -512 -362 2
-363 3 -3 499 c-1 363 1 502 9 512 10 12 74 14 363 12 l351 -3 3 -513z"/>
<path d="M500 935 l0 -185 190 0 c105 0 193 -1 198 -2 4 -2 8 81 10 185 l2
187 -200 0 -200 0 0 -185z m380 0 l0 -155 -180 0 -180 0 0 153 c0 85 2 156 4
158 2 2 83 3 180 1 l176 -3 0 -154z"/>
<path d="M517 604 c-4 -4 -7 -13 -7 -21 0 -11 35 -13 188 -11 158 3 187 5 187
18 0 13 -28 15 -181 18 -99 1 -183 -1 -187 -4z"/>
<path d="M510 465 c0 -13 25 -15 187 -13 138 2 187 6 191 16 3 9 -39 12 -187
12 -164 0 -191 -2 -191 -15z"/>
<path d="M1120 720 l0 -440 420 0 420 0 0 440 0 440 -420 0 -420 0 0 -440z
m300 394 c7 -7 9 -153 8 -405 l-3 -394 -145 0 -145 0 -3 394 c-1 231 2 398 7
405 12 14 267 14 281 0z m518 -397 l2 -407 -245 2 -246 3 0 405 c1 223 1 406
1 408 0 1 109 1 243 0 l242 -3 3 -408z"/>
<path d="M1589 935 c0 0 -1 -53 -2 -117 l-2 -117 118 -3 117 -3 0 120 0 120
-115 0 c-63 0 -115 0 -116 0z m209 -120 l3 -90 -98 0 -98 0 3 92 3 91 92 -1
92 -2 3 -90z"/>
<path d="M1595 579 c-12 -18 1 -21 114 -23 100 -1 111 1 111 17 0 15 -12 17
-109 17 -67 0 -112 -4 -116 -11z"/>
<path d="M1592 449 c6 -17 228 -18 228 -1 0 9 -30 12 -116 12 -80 0 -115 -3
-112 -11z"/>
</g>
</svg>
